<svg xmlns="http://www.w3.org/2000/svg" viewBox="0 0 350.93 350.93"><defs><style>.cls-1{fill:#f4f3dc;stroke:#f1e9c4;}.cls-1,.cls-2{stroke-miterlimit:10;}.cls-2{fill:#efefea;stroke:#e5deb1;}.cls-3{fill:#22415a;}.cls-4{fill:#a9a427;}</style></defs><title>wheel2</title><g id="Layer_2" data-name="Layer 2"><g id="Layer_1-2" data-name="Layer 1"><circle class="cls-1" cx="175.46" cy="175.46" r="174.96"/><rect x="147.5" y="15.74" width="55.92" height="39.84" rx="12.27"/><rect x="244.18" y="249.42" width="55.92" height="39.84" rx="12.27" transform="translate(-110.75 271.32) rotate(-45)"/><rect x="50.83" y="56.07" width="55.92" height="39.84" rx="12.27" transform="translate(-30.66 77.97) rotate(-45)"/><rect x="244.18" y="50.63" width="55.92" height="39.84" rx="12.27" transform="translate(129.59 -171.77) rotate(45)"/><rect x="45.39" y="249.42" width="55.92" height="39.84" rx="12.27" transform="translate(211.93 27.02) rotate(45)"/><rect x="284.34" y="152.57" width="55.92" height="39.84" rx="12.27" transform="translate(484.79 -139.81) rotate(90)"/><rect x="9.62" y="152.57" width="55.92" height="39.84" rx="12.27" transform="translate(210.07 134.91) rotate(90)"/><rect x="147.5" y="295.35" width="55.92" height="39.84" rx="12"/><circle class="cls-2" cx="175.46" cy="172.67" r="96.67"/><path class="cls-3" d="M147.3,158.08c-.42-3.32-.84-9-.84-9h-.14s-.43,5.73-.85,9l-1.7,13.85H149l-1.7-13.85Zm4,30.68L149.78,177H143l-1.48,11.81h-6.15l7.07-46.09h8l7,46.09Z"/><path class="cls-3" d="M184.06,188.76v-30c0-4.39.42-9.9.42-9.9h-.14l-6.43,39.94h-6.08l-6.43-39.94h-.15s.43,5.44.43,9.9v30h-5.8V142.67h9.33L174,171.72c.56,3.39.78,9,.78,9h.14s.21-5.59.78-9l4.8-29.05h9.33v46.09Z"/><path class="cls-3" d="M209.57,188.76l-.92-2.62a7.22,7.22,0,0,1-6.29,3.18c-5.8,0-9-3.6-9-9.89V152c0-6.29,3.61-9.89,9.68-9.89s9.62,3.6,9.62,9.89v5.23H206.6v-4.87c0-3.26-1.27-4.74-3.54-4.74s-3.6,1.48-3.6,4.74v26.71c0,3.25,1.27,4.67,3.53,4.67s3.61-1.42,3.61-4.67v-8.55H203v-5.3h9.69v23.54Z"/><path class="cls-4" d="M124.3,152.87a4.15,4.15,0,0,1-.3-1.1,4.78,4.78,0,0,1-3.63,1.33c-2.51,0-4.81-1.26-4.81-3.84s2.23-3.36,4.85-3.59c2-.18,3.39-.41,3.39-1.38,0-.62-.81-1.13-2.17-1.13a2.59,2.59,0,0,0-2.6,1.5h-3c.29-2.26,2.46-3.94,5.56-3.94,4.81,0,5.18,3.11,5.18,4.05v6.17a7.27,7.27,0,0,0,.35,1.93Zm7.12.95c2.62-1.68,4.25-4,4.25-6.6,0-5.11-6.35-9.25-14.18-9.25s-14.18,4.14-14.18,9.25,6.35,9.24,14.18,9.24a19.81,19.81,0,0,0,7.91-1.57l2.52,1.76,2.9,2-2-2.9-1.37-2Z"/><path class="cls-4" d="M118.62,149.28c0,.67.78,1.13,2,1.13,1.82,0,3.29-.62,3.29-2.14v-1.1a6.91,6.91,0,0,1-2.88.75c-1.49.17-2.41.49-2.41,1.36Z"/><path class="cls-4" d="M101.17,202.37l-1,2.52h1.92l-1-2.52ZM103,207.2l-.65-1.57H100l-.64,1.57h-.9l2.31-5.79h.88l2.31,5.79Z"/><path class="cls-4" d="M110.06,207.27l-3.19-4.08a1.15,1.15,0,0,1-.29-.52v4.53h-.83v-5.65h.9l3.19,4a1.11,1.11,0,0,1,.22.52v-4.54h.81v5.72Z"/><path class="cls-4" d="M117.31,202.69a2,2,0,0,0-1.51-.39h-1.11v4.15h1a2,2,0,0,0,2.34-2.09,2.2,2.2,0,0,0-.76-1.67Zm.89,3.73a3,3,0,0,1-2.33.78h-2.08v-5.65h2.08a3.06,3.06,0,0,1,2.34.78,3.23,3.23,0,0,1,.8,2,3.18,3.18,0,0,1-.81,2Z"/><polygon class="cls-4" points="121.14 207.2 121.14 201.55 124.63 201.55 124.63 202.3 122.04 202.3 122.04 203.93 124.19 203.93 124.19 204.67 122.04 204.67 122.04 206.45 124.7 206.45 124.7 207.2 121.14 207.2 121.14 207.2"/><path class="cls-4" d="M129.63,202.45c-.19-.14-.26-.15-.91-.15h-.88v1.85h.88c.58,0,.7,0,.95-.24a.89.89,0,0,0,.3-.72.85.85,0,0,0-.34-.74Zm.51,4.75-1.49-2.31h-.81v2.31h-.9v-5.65h1.9c1.36,0,2.1.57,2.1,1.61a1.59,1.59,0,0,1-1.32,1.66l1.56,2.38Z"/><path class="cls-4" d="M136.2,202.67a2.54,2.54,0,0,0-.71-.34,3,3,0,0,0-.79-.12c-.72,0-1.16.26-1.16.7a.56.56,0,0,0,.07.3c.17.24.35.35,1.45.88s1.41.91,1.41,1.61c0,1-.78,1.6-2.06,1.6a3.71,3.71,0,0,1-1.15-.17,5.15,5.15,0,0,1-.81-.43l.41-.77a2.93,2.93,0,0,0,.73.45,2.41,2.41,0,0,0,.93.19c.66,0,1-.28,1-.75s-.19-.63-.64-.84l-1-.5c-.87-.41-1.26-.89-1.26-1.49,0-.93.81-1.53,2.06-1.53a3.92,3.92,0,0,1,1,.14,3.22,3.22,0,0,1,.76.33l-.32.74Z"/><path class="cls-4" d="M141.23,202.2a2.18,2.18,0,1,0,2.17,2.18,2.14,2.14,0,0,0-2.17-2.18Zm0,5.1a2.93,2.93,0,1,1,3.13-2.92,2.92,2.92,0,0,1-3.13,2.92Z"/><path class="cls-4" d="M150.89,207.27l-3.19-4.08a1.15,1.15,0,0,1-.29-.52v4.53h-.83v-5.65h.9l3.19,4a1.11,1.11,0,0,1,.22.52v-4.54h.82v5.72Z"/><path class="cls-4" d="M163.08,207.2v-4.5a3.93,3.93,0,0,1-.22.66l-1.74,3.84h-.71l-1.56-3.61a2,2,0,0,1-.22-.74v4.35h-.9v-5.65h1.14l1.84,4.17a1.36,1.36,0,0,1,.1.45,4.46,4.46,0,0,1,.12-.45l1.9-4.17H164v5.65Z"/><path class="cls-4" d="M168.56,202.37l-1,2.52h1.93l-1-2.52Zm1.85,4.83-.64-1.57h-2.43l-.64,1.57h-.89l2.3-5.79H169l2.3,5.79Z"/><path class="cls-4" d="M175.84,202.45c-.19-.14-.26-.15-.91-.15H174v1.85h.89c.58,0,.69,0,.94-.24a.9.9,0,0,0,.31-.72.88.88,0,0,0-.34-.74Zm.5,4.75-1.48-2.31H174v2.31h-.9v-5.65H175c1.36,0,2.11.57,2.11,1.61a1.6,1.6,0,0,1-1.33,1.66l1.56,2.38Z"/><path class="cls-4" d="M182.7,207.2l-2.38-2.82,2.31-2.83h1.19l-2.39,2.83L184,207.2Zm-3.34,0v-5.65h.89v5.65Z"/><polygon class="cls-4" points="185.82 207.2 185.82 201.55 189.31 201.55 189.31 202.3 186.72 202.3 186.72 203.93 188.86 203.93 188.86 204.67 186.72 204.67 186.72 206.45 189.38 206.45 189.38 207.2 185.82 207.2 185.82 207.2"/><polygon class="cls-4" points="193.33 202.3 193.33 207.2 192.44 207.2 192.44 202.3 190.44 202.3 190.44 201.55 195.34 201.55 195.34 202.3 193.33 202.3 193.33 202.3"/><polygon class="cls-4" points="197.06 207.2 197.06 201.55 197.96 201.55 197.96 207.2 197.06 207.2 197.06 207.2"/><path class="cls-4" d="M205.18,207.27,202,203.19a1.31,1.31,0,0,1-.3-.52v4.53h-.83v-5.65h.9l3.19,4a1,1,0,0,1,.22.52v-4.54H206v5.72Z"/><path class="cls-4" d="M213.27,207.1a8.24,8.24,0,0,1-1.67.22,3.1,3.1,0,0,1-3.37-3,3,3,0,0,1,3.29-2.9,6.87,6.87,0,0,1,1.3.13,3.42,3.42,0,0,1,.84.34l-.38.74-.39-.21a4,4,0,0,0-1.35-.27,2.19,2.19,0,0,0-2.36,2.13,2.37,2.37,0,0,0,2.56,2.25,5.62,5.62,0,0,0,1.09-.12v-1.78h.9V207l-.46.13Z"/><path class="cls-4" d="M223.89,207.1a8.05,8.05,0,0,1-1.66.22,3.1,3.1,0,0,1-3.37-3,3,3,0,0,1,3.29-2.9,6.87,6.87,0,0,1,1.3.13,3.37,3.37,0,0,1,.83.34l-.37.74-.39-.21a4,4,0,0,0-1.35-.27,2.19,2.19,0,0,0-2.36,2.13,2.37,2.37,0,0,0,2.56,2.25,5.54,5.54,0,0,0,1.09-.12v-1.78h.89V207a4.47,4.47,0,0,1-.46.13Z"/><path class="cls-4" d="M229.77,202.45c-.19-.14-.26-.15-.92-.15H228v1.85h.88c.58,0,.7,0,1-.24a.9.9,0,0,0,.31-.72.88.88,0,0,0-.34-.74Zm.5,4.75-1.49-2.31H228v2.31h-.9v-5.65H229c1.36,0,2.11.57,2.11,1.61a1.6,1.6,0,0,1-1.33,1.66l1.56,2.38Z"/><path class="cls-4" d="M235.73,202.2a2.18,2.18,0,1,0,2.17,2.18,2.14,2.14,0,0,0-2.17-2.18Zm0,5.1a2.93,2.93,0,1,1,3.13-2.92,2.92,2.92,0,0,1-3.13,2.92Z"/><path class="cls-4" d="M244.93,206.94a3.41,3.41,0,0,1-1.61.42,3.47,3.47,0,0,1-1.61-.42c-.6-.36-.82-.92-.82-2.05v-3.34h.89v3.5a1.55,1.55,0,1,0,3.09,0v-3.5h.89v3.34c0,1.13-.23,1.69-.83,2.05Z"/><path class="cls-4" d="M250.35,202.3h-1v1.91a4.62,4.62,0,0,0,1.09.12,1.05,1.05,0,0,0,1.15-1.08c0-.67-.37-.95-1.27-.95Zm.21,2.77a5.56,5.56,0,0,1-1.18-.12v2.25h-.89v-5.65h2c1.34,0,2.06.6,2.06,1.74a1.79,1.79,0,0,1-1.95,1.78Z"/></g></g></svg>