<svg xmlns="http://www.w3.org/2000/svg" viewBox="0 0 350.93 350.93"><defs><style>.cls-1{fill:#f4f3dc;stroke:#f1e9c4;}.cls-1,.cls-2{stroke-miterlimit:10;}.cls-2{fill:#efefea;stroke:#e5deb1;}</style></defs><title>wheel</title><g id="Layer_2" data-name="Layer 2"><g id="Layer_1-2" data-name="Layer 1"><circle class="cls-1" cx="175.46" cy="175.46" r="174.96"/><rect x="147.5" y="15.74" width="55.92" height="39.84" rx="12.27"/><rect x="244.18" y="249.42" width="55.92" height="39.84" rx="12.27" transform="translate(-110.75 271.32) rotate(-45)"/><rect x="50.83" y="56.07" width="55.92" height="39.84" rx="12.27" transform="translate(-30.66 77.97) rotate(-45)"/><rect x="244.18" y="50.63" width="55.92" height="39.84" rx="12.27" transform="translate(129.59 -171.77) rotate(45)"/><rect x="45.39" y="249.42" width="55.92" height="39.84" rx="12.27" transform="translate(211.93 27.02) rotate(45)"/><rect x="284.34" y="152.57" width="55.92" height="39.84" rx="12.27" transform="translate(484.79 -139.81) rotate(90)"/><rect x="9.62" y="152.57" width="55.92" height="39.84" rx="12.27" transform="translate(210.07 134.91) rotate(90)"/><rect x="147.5" y="295.35" width="55.92" height="39.84" rx="12"/><circle class="cls-2" cx="175.46" cy="172.67" r="96.67"/></g></g></svg>